<svg height="400pt" preserveAspectRatio="xMidYMid meet" viewBox="0 0 400 400" width="400pt" xmlns="http://www.w3.org/2000/svg">
  <g transform="matrix(.1 0 0 -.1 0 400)">
    <path d="m2389 3853c-12-30-6-464 6-495 6-16 0-18-48-18-31 0-77-4-104-10-148-30-280-49-377-55-60-4-120-11-135-17-14-6-42-14-61-17l-35-7 2-59c1-38 19-114 48-210 26-82 50-166 55-185 4-19 13-55 19-80s17-109 26-186c18-182 46-253 93-237 21 8 34 41 23 62-12 21-41 251-41 321 0 25-6 54-14 65-7 11-16 34-19 50-3 17-20 75-37 130-52 166-74 255-64 264 5 5 59 14 119 20 132 14 319 38 396 51 31 6 365 10 779 10h723l-6-77c-5-71-45-211-68-239-5-6-15-30-24-53-8-23-23-54-33-69s-27-47-36-72c-10-25-26-63-36-85-74-160-81-184-55-205 34-28 60 6 129 174 26 61 54 122 62 136s24 45 35 70 24 53 30 63c19 35 71 182 79 227 5 25 9 75 9 111 1 115 73 103-691 109l-663 5-4 250c-2 138-8 258-13 268-14 28-57 22-69-10z"/>
    <path d="m800 3684c-6-14-10-115-10-225 0-109-3-199-7-199-61 0-425-85-471-109-18-9-23-8-32 9-16 30-58 26-70-6-6-14-10-150-10-313 0-255 2-297 20-366 11-43 20-92 20-109s6-58 14-91c7-33 21-94 30-135 16-74 35-103 61-94 7 3 25-2 38-11 23-14 29-15 54-2 63 32 164 60 278 77 66 10 132 21 147 25 26 7 26 6 32-52 4-32 11-195 16-363 9-307 21-493 39-585 20-106 42-222 53-275 6-30 14-89 18-130 7-76 19-112 54-163 10-15 17-29 15-30-2-2-47-16-99-31-173-52-225-68-275-86-27-10-99-24-160-30-157-16-169-20-173-53-6-47 28-54 183-34 73 9 145 24 161 32s37 15 46 15 36 8 60 18c24 11 63 22 88 26 24 4 49 10 55 15 5 4 28 12 50 19 22 6 67 18 100 27 33 10 114 28 180 41 171 33 197 39 222 52 12 7 31 12 43 12s36 11 52 25l31 26 32-78c17-43 41-99 53-125s22-51 22-57c0-16 50-50 66-44 8 3 19 14 24 24 10 17-6 58-86 222-8 16-14 34-14 40 0 12-50 139-68 173-6 10-20 50-32 88-11 38-27 78-35 90-8 11-15 30-15 41s-9 39-20 63c-15 34-24 42-45 42-14 0-28-7-32-16-8-22 12-106 46-189 59-144 79-200 73-206-21-20-235-82-358-104-45-8-88-17-96-20-17-7-55 111-62 195-2 30-9 78-15 105-14 65-40 206-52 275-18 101-30 282-39 580-5 162-13 329-18 370s-8 76-8 77c1 1 69 11 151 22 83 12 178 25 211 31 86 14 93 13 100-15 10-40 39-50 65-24l22 22-7 351c-4 193-12 371-17 396-6 25-14 92-18 150-9 116-27 164-63 174-13 3-139 6-280 6h-258v201c0 119-4 208-10 220-16 29-58 25-70-7zm590-563c0-33 6-92 14-133 9-45 17-189 21-374l8-302-69-11c-38-6-136-20-219-31-82-11-160-23-172-25-21-5-23-2-23 32 0 20-7 80-15 133-8 52-19 183-25 290-5 107-14 211-20 230-5 19-10 83-10 142v108h255 255zm-600-44c0-50 5-108 10-127 6-19 17-145 25-280s17-254 20-265 9-55 13-98c10-94 14-90-118-106-115-15-189-33-283-71-75-31-87-29-87 16 0 12-6 37-14 56-8 18-19 74-25 123-5 50-17 119-25 155-12 49-16 125-16 312 0 267-1 264 57 285 78 28 357 90 416 92l27 1z"/>
    <path d="m2267 2913c-4-3-7-191-7-416 0-341-3-418-16-463s-14-93-9-296c3-134 9-457 13-718 7-437 9-479 27-526 30-77 102-134 219-173 123-40 287-53 753-58l353-3 38 24c21 13 55 40 75 59l37 34v242c0 148-4 250-10 262-16 29-58 25-70-7-6-14-10-126-10-248v-223l-38-27-38-26h-324c-178 0-360 4-404 10-45 5-133 14-196 19-163 14-260 55-298 124-15 29-18 84-24 507-4 261-10 591-13 732l-6 258 93 45c112 55 138 74 245 171 87 79 233 245 233 264 0 6 23 35 50 64 28 29 50 57 50 63s16 30 35 54 35 47 35 51c0 3 16 30 35 59 19 30 35 65 35 79 0 37-22 63-50 58-18-2-27-14-39-53-9-27-35-75-57-105-23-30-49-70-59-89-9-19-33-50-52-70s-42-49-50-66c-22-42-115-151-176-205-28-25-66-62-86-82-19-21-40-38-46-38-7 0-20-9-31-21-16-18-110-69-127-69-4 0-7 174-7 386 0 246-4 392-10 405-10 19-59 27-73 12z"/>
  </g>
</svg>
